<svg width="2400" height="900" viewBox="0 0 2400 900" fill="none" xmlns="http://www.w3.org/2000/svg">
<g id="home-hero-blend" clip-path="url(#clip0_42_15)">
<rect id="Mashead" width="2420.31" height="910" fill="url(#paint0_linear_42_15)"/>
<g id="Group 4" style="mix-blend-mode:overlay" opacity="0.33">
<path id="C" d="M2644.8 417.024C2615.59 375.291 2589.24 345.818 2565.77 328.604C2542.29 310.867 2516.99 298.348 2489.87 291.045C2462.74 283.22 2434.31 279.308 2404.58 279.308C2360.76 279.308 2320.07 289.219 2282.51 309.042C2244.95 328.343 2212.35 354.947 2184.7 388.854C2157.57 422.24 2136.19 461.364 2120.54 506.226C2104.89 550.567 2097.06 597.776 2097.06 647.855C2097.06 698.455 2104.63 746.186 2119.76 791.048C2135.4 835.388 2156.79 874.252 2183.92 907.637C2211.04 941.023 2243.39 967.627 2280.95 987.45C2318.5 1006.75 2359.71 1016.4 2404.58 1016.4C2435.88 1016.4 2465.09 1011.45 2492.21 1001.53C2519.34 991.102 2543.86 977.539 2565.77 960.846C2588.2 944.153 2607.76 925.113 2624.45 903.725C2641.15 881.815 2654.19 859.124 2663.58 835.649L2915.54 906.072C2899.36 957.194 2875.63 1004.66 2844.33 1048.48C2813.03 1091.78 2775.21 1129.34 2730.87 1161.16C2687.05 1192.98 2637.49 1218.02 2582.2 1236.28C2527.43 1254.54 2468.22 1263.66 2404.58 1263.66C2350.85 1263.66 2299.46 1256.36 2250.43 1241.76C2201.39 1227.15 2155.49 1206.54 2112.71 1179.94C2070.46 1153.34 2031.86 1121.25 1996.91 1083.69C1962.48 1046.14 1933 1004.66 1908.49 959.281C1883.97 913.375 1864.93 864.34 1851.37 812.175C1837.8 759.488 1831.02 704.715 1831.02 647.855C1831.02 562.825 1845.89 483.273 1875.62 409.199C1905.36 334.603 1946.05 269.657 1997.69 214.362C2049.33 158.545 2109.84 114.726 2179.22 82.9056C2249.12 50.5632 2324.24 34.392 2404.58 34.392C2468.74 34.392 2522.73 42.4776 2566.55 58.6488C2610.37 74.2984 2658.62 105.597 2711.31 152.546H2886.58V417.024H2644.8Z" fill="white" fill-opacity="0.8"/>
<path id="C_2" d="M1321.44 -419.881C1350.65 -461.613 1376.99 -491.086 1400.47 -508.301C1423.94 -526.037 1449.24 -538.556 1476.37 -545.859C1503.49 -553.684 1531.92 -557.597 1561.66 -557.597C1605.48 -557.597 1646.17 -547.685 1683.73 -527.862C1721.28 -508.561 1753.89 -481.957 1781.54 -448.05C1808.66 -414.664 1830.05 -375.54 1845.7 -330.678C1861.35 -286.338 1869.17 -239.128 1869.17 -189.05C1869.17 -138.449 1861.61 -90.7182 1846.48 -45.8561C1830.83 -1.51573 1809.44 37.3473 1782.32 70.733C1755.19 104.119 1722.85 130.723 1685.29 150.546C1647.73 169.847 1606.52 179.497 1561.66 179.497C1530.36 179.497 1501.15 174.542 1474.02 164.63C1446.9 154.197 1422.38 140.634 1400.47 123.942C1378.04 107.249 1358.48 88.2084 1341.78 66.8207C1325.09 44.9113 1312.05 22.2194 1302.66 -1.25491L1050.7 69.1681C1066.87 120.29 1090.61 167.76 1121.91 211.579C1153.21 254.876 1191.03 292.435 1235.37 324.256C1279.18 356.077 1328.74 381.116 1384.04 399.374C1438.81 417.632 1498.02 426.76 1561.66 426.76C1615.39 426.76 1666.77 419.457 1715.81 404.851C1764.84 390.245 1810.75 369.64 1853.52 343.035C1895.78 316.431 1934.38 284.349 1969.33 246.791C2003.76 209.232 2033.23 167.76 2057.75 122.377C2082.27 76.4712 2101.31 27.4359 2114.87 -24.7292C2128.43 -77.4161 2135.22 -132.19 2135.22 -189.05C2135.22 -274.079 2120.35 -353.631 2090.61 -427.705C2060.88 -502.302 2020.19 -567.247 1968.55 -622.542C1916.9 -678.359 1856.39 -722.178 1787.01 -753.999C1717.11 -786.341 1641.99 -802.512 1561.66 -802.512C1497.5 -802.512 1443.5 -794.427 1399.69 -778.255C1355.87 -762.606 1307.61 -731.307 1254.93 -684.358H1079.65V-419.881H1321.44Z" fill="white" fill-opacity="0.8"/>
<rect id="Rectangle 1" x="1052.18" y="-1.88086" width="256.402" height="520.817" fill="white" fill-opacity="0.8"/>
</g>
<g id="Group 6" style="mix-blend-mode:overlay" opacity="0.33">
<path id="C_3" d="M760.55 840.127C724.951 789.27 692.848 753.353 664.241 732.374C635.634 710.76 604.802 695.503 571.745 686.603C538.689 677.068 504.043 672.3 467.807 672.3C414.408 672.3 364.823 684.378 319.052 708.535C273.281 732.057 233.549 764.478 199.857 805.798C166.8 846.484 140.736 894.162 121.665 948.833C102.594 1002.87 93.0582 1060.4 93.0582 1121.43C93.0582 1183.09 102.276 1241.26 120.711 1295.93C139.783 1349.96 165.847 1397.32 198.903 1438.01C231.96 1478.69 271.374 1511.12 317.145 1535.27C362.916 1558.79 413.137 1570.55 467.807 1570.55C505.95 1570.55 541.549 1564.51 574.606 1552.44C607.663 1539.72 637.541 1523.19 664.241 1502.85C691.576 1482.51 715.415 1459.31 735.758 1433.24C756.1 1406.54 771.993 1378.89 783.436 1350.28L1090.48 1436.1C1070.78 1498.4 1041.85 1556.25 1003.71 1609.65C965.566 1662.41 919.477 1708.18 865.442 1746.96C812.043 1785.74 751.65 1816.25 684.266 1838.5C617.516 1860.75 545.364 1871.88 467.807 1871.88C402.33 1871.88 339.712 1862.98 279.956 1845.18C220.2 1827.38 164.257 1802.27 112.129 1769.85C60.6372 1737.43 13.5949 1698.33 -28.9974 1652.56C-70.9541 1606.79 -106.872 1556.25 -136.75 1500.94C-166.628 1445 -189.831 1385.25 -206.36 1321.67C-222.888 1257.47 -231.152 1190.72 -231.152 1121.43C-231.152 1017.81 -213.035 920.861 -176.799 830.591C-140.564 739.685 -90.9789 660.539 -28.0439 593.155C34.8911 525.134 108.633 471.735 193.182 432.956C278.367 393.543 369.909 373.836 467.807 373.836C545.999 373.836 611.795 383.689 665.194 403.396C718.594 422.467 777.397 460.61 841.603 517.823H1055.2V840.127H760.55Z" fill="white" fill-opacity="0.8"/>
<path id="C_4" d="M-852.151 -179.76C-816.551 -230.616 -784.448 -266.534 -755.841 -287.512C-727.234 -309.126 -696.403 -324.383 -663.346 -333.283C-630.289 -342.819 -595.643 -347.586 -559.408 -347.586C-506.008 -347.586 -456.423 -335.508 -410.652 -311.351C-364.881 -287.83 -325.15 -255.409 -291.457 -214.088C-258.401 -173.403 -232.337 -125.725 -213.265 -71.054C-194.194 -17.0189 -184.659 40.5126 -184.659 101.54C-184.659 163.204 -193.876 221.371 -212.312 276.042C-231.383 330.077 -257.447 377.437 -290.504 418.122C-323.561 458.808 -362.974 491.229 -408.745 515.385C-454.516 538.907 -504.737 550.667 -559.408 550.667C-597.55 550.667 -633.15 544.628 -666.206 532.55C-699.263 519.835 -729.141 503.307 -755.841 482.964C-783.176 462.622 -807.015 439.419 -827.358 413.355C-847.701 386.655 -863.593 359.002 -875.036 330.395L-1182.08 416.215C-1162.38 478.515 -1133.45 536.364 -1095.31 589.763C-1057.17 642.527 -1011.08 688.298 -957.042 727.076C-903.643 765.854 -843.251 796.368 -775.866 818.618C-709.117 840.867 -636.964 851.992 -559.408 851.992C-493.93 851.992 -431.313 843.092 -371.556 825.293C-311.8 807.493 -255.858 782.382 -203.73 749.961C-152.238 717.54 -105.195 678.444 -62.6029 632.673C-20.6463 586.903 15.2712 536.364 45.1494 481.057C75.0276 425.115 98.2309 365.359 114.759 301.788C131.288 237.582 139.552 170.832 139.552 101.54C139.552 -2.07979 121.434 -99.0251 85.1989 -189.295C48.9636 -280.201 -0.621488 -359.347 -63.5565 -426.732C-126.491 -494.753 -200.233 -548.152 -284.782 -586.93C-369.967 -626.344 -461.509 -646.051 -559.408 -646.051C-637.6 -646.051 -703.395 -636.197 -756.795 -616.49C-810.194 -597.419 -868.997 -559.277 -933.203 -502.063H-1146.8V-179.76H-852.151Z" fill="white" fill-opacity="0.8"/>
</g>
<g id="Group 5" style="mix-blend-mode:overlay" opacity="0.33">
<path id="C_5" d="M2310.3 726.659C2271.64 671.425 2236.77 632.417 2205.71 609.633C2174.64 586.158 2141.15 569.588 2105.25 559.922C2069.35 549.566 2031.72 544.388 1992.37 544.388C1934.37 544.388 1880.52 557.506 1830.81 583.742C1781.1 609.288 1737.95 644.499 1701.35 689.376C1665.45 733.563 1637.14 785.345 1616.43 844.721C1595.72 903.407 1585.36 965.89 1585.36 1032.17C1585.36 1099.14 1595.37 1162.32 1615.4 1221.69C1636.11 1280.38 1664.42 1331.81 1700.32 1376C1736.22 1420.19 1779.03 1455.4 1828.74 1481.64C1878.45 1507.18 1932.99 1519.95 1992.37 1519.95C2033.79 1519.95 2072.45 1513.39 2108.36 1500.28C2144.26 1486.47 2176.71 1468.52 2205.71 1446.42C2235.39 1424.33 2261.28 1399.13 2283.38 1370.82C2305.47 1341.82 2322.73 1311.79 2335.16 1280.72L2668.63 1373.93C2647.23 1441.59 2615.82 1504.42 2574.39 1562.41C2532.97 1619.72 2482.91 1669.43 2424.22 1711.55C2366.23 1753.66 2300.64 1786.8 2227.45 1810.97C2154.96 1835.13 2076.6 1847.21 1992.37 1847.21C1921.25 1847.21 1853.25 1837.55 1788.35 1818.22C1723.45 1798.88 1662.69 1771.61 1606.07 1736.4C1550.15 1701.19 1499.06 1658.73 1452.8 1609.02C1407.23 1559.31 1368.22 1504.42 1335.77 1444.35C1303.32 1383.6 1278.12 1318.7 1260.17 1249.65C1242.22 1179.92 1233.25 1107.43 1233.25 1032.17C1233.25 919.632 1252.92 814.343 1292.28 716.303C1331.63 617.573 1385.48 531.615 1453.84 458.43C1522.19 384.555 1602.28 326.56 1694.1 284.444C1786.62 241.638 1886.04 220.235 1992.37 220.235C2077.29 220.235 2148.75 230.936 2206.74 252.34C2264.74 273.052 2328.6 314.478 2398.33 376.615H2630.32V726.659H2310.3Z" fill="white" fill-opacity="0.8"/>
</g>
</g>
<defs>
<linearGradient id="paint0_linear_42_15" x1="-13.1021" y1="11.911" x2="2122.72" y2="1333.27" gradientUnits="userSpaceOnUse">
<stop stop-color="#C40C00"/>
<stop offset="0.630208" stop-color="#FF7000"/>
<stop offset="0.713542" stop-color="#FF9900"/>
</linearGradient>
<clipPath id="clip0_42_15">
<rect width="2400" height="900" fill="white"/>
</clipPath>
</defs>
</svg>
